<svg width="58" height="63" viewBox="0 0 58 63" fill="none" xmlns="http://www.w3.org/2000/svg">
<path d="M55.9286 3.93752H40.3929L39.1759 1.63654C38.9181 1.14462 38.521 0.730825 38.0293 0.441709C37.5375 0.152593 36.9706 -0.000372581 36.3924 2.15735e-05H21.5946C21.0177 -0.00208628 20.4518 0.150309 19.9618 0.439746C19.4718 0.729184 19.0775 1.14396 18.8241 1.63654L17.6071 3.93752H2.07143C1.52205 3.93752 0.995176 4.14494 0.606707 4.51415C0.218239 4.88337 0 5.38412 0 5.90627L0 9.84377C0 10.3659 0.218239 10.8667 0.606707 11.2359C0.995176 11.6051 1.52205 11.8125 2.07143 11.8125H55.9286C56.4779 11.8125 57.0048 11.6051 57.3933 11.2359C57.7818 10.8667 58 10.3659 58 9.84377V5.90627C58 5.38412 57.7818 4.88337 57.3933 4.51415C57.0048 4.14494 56.4779 3.93752 55.9286 3.93752ZM6.8875 57.4629C6.9863 58.9624 7.68262 60.3697 8.83472 61.3984C9.98681 62.4271 11.5081 62.9998 13.0888 63H44.9112C46.4919 62.9998 48.0132 62.4271 49.1653 61.3984C50.3174 60.3697 51.0137 58.9624 51.1125 57.4629L53.8571 15.75H4.14286L6.8875 57.4629Z" fill="black"/>
</svg>
